<svg viewBox="0 0 472 590" overflow="visible" id="svg-2119719877_1274"><path d="M 195.182 0 L 298.611 83.565 C 305.184 88.867 305.362 98.789 299.235 104.618 C 277.266 125.431 257.589 148.553 240.542 173.585 C 224.131 197.721 210.258 223.5 199.145 250.509 C 195.564 259.242 202.173 268.566 211.632 268.566 L 324.466 268.566 C 332.054 268.566 338.182 274.681 338.182 282.217 L 338.182 576.341 C 338.182 583.85 332.054 589.964 324.466 589.964 L 22.024 589.964 C 15.246 589.964 9.466 585.039 8.567 578.334 C -5.39 472.742 -23.096 214.715 141.004 46.86 C 157.748 29.77 175.868 14.097 195.182 0 Z M 420.412 377 L 457.725 407.17 C 460.096 409.084 460.16 412.667 457.95 414.771 C 450.024 422.285 442.926 430.633 436.776 439.671 C 430.856 448.385 425.851 457.692 421.842 467.443 C 420.55 470.597 422.934 473.963 426.347 473.963 L 467.052 473.963 C 469.789 473.963 472 476.17 472 478.891 L 472 585.081 C 472 587.792 469.789 590 467.052 590 L 357.945 590 C 355.5 590 353.415 588.222 353.09 585.801 C 348.056 547.678 341.668 454.521 400.868 393.918 C 406.908 387.748 413.445 382.09 420.412 377 Z" fill="var(--token-7d692461-fc25-4666-b920-02b5d4b7fd88, rgb(240, 43, 66)) /* {&quot;name&quot;:&quot;Main color&quot;} */"/></svg>